# xmcd
#
# Track frame offsets:
#	2918
#	20881
#	43043
#	61591
#	86211
#	120353
#	137423
#	151736
#	174576
#	190473
#	207716
#	225148
#	243313
#	260248
#	276401
#	292728
#	309368
#	324413
#
# Disc length: 4608
#
# Revision: 2
# Processed by: cddbd v1.5.1PL0 Copyright (c) Steve Scherf et al.
# Submitted via: CD-Runner 7.0
# Normalized: r1:TDELIM( - )
#
DISCID=0411da12
DTITLE=Various Artist - 18 Soul Classics - Vol. 1
DYEAR=1900
DGENRE=
TTITLE0=Imagination - Just an Illusion
TTITLE1=Pointer Sisters - I`m so Excited
TTITLE2=Five Star - System Addict
TTITLE3=Odyssey - Going Back to My Roots
TTITLE4=Kc and The Sunshine Band - (You Said) You`d Give Me Some More
TTITLE5=Cameo - She`s Strange
TTITLE6=Hues Corporation - Rock the Boat
TTITLE7=Aretha Franklin - Jumping Jack Flash
TTITLE8=Barry White - Let The Music Play
TTITLE9=Earth Wind and Fire - Fantasy
TTITLE10=The Jacksons - Can You Feel it
TTITLE11=Gap band - Burn Rubber On Me
TTITLE12=Evelyn 'Champagne' King - Love Come Down
TTITLE13=Shannon - Let the Music Play
TTITLE14=Junior - Mama Used to Say
TTITLE15=Herbie Hancock - Rockit
TTITLE16=Isley Brothers - Fight The Power
TTITLE17=James Brown - Living in America
EXTD=one in a set of four\nPickwick Music - PMP 104
EXTT0=
EXTT1=
EXTT2=
EXTT3=
EXTT4=
EXTT5=
EXTT6=
EXTT7=
EXTT8=
EXTT9=
EXTT10=
EXTT11=
EXTT12=
EXTT13=
EXTT14=
EXTT15=
EXTT16=
EXTT17=
PLAYORDER=
